HIERARCHY
ROOT Hips
{
	OFFSET 47.887600 -19.006115 96.754601
	CHANNELS 6 Xposition Yposition Zposition Xrotation Yrotation Zrotation
	JOINT spine
	{
		OFFSET 0.000000 -0.458069 7.965683
		CHANNELS 3 Xrotation Yrotation Zrotation
		JOINT spine1
		{
			OFFSET 0.000000 -0.000002 10.243103
			CHANNELS 3 Xrotation Yrotation Zrotation
			JOINT spine2
			{
				OFFSET 0.000000 -0.000002 9.814751
				CHANNELS 3 Xrotation Yrotation Zrotation
				JOINT Neck
				{
					OFFSET 0.000000 -1.201384 25.198608
					CHANNELS 3 Xrotation Yrotation Zrotation
					JOINT Head
					{
						OFFSET 0.000000 0.000000 7.613144
						CHANNELS 3 Xrotation Yrotation Zrotation
						End Site
						{
							OFFSET 0.000000 6.077326 18.428101
						}
					}
				}
				JOINT RightShoulder
				{
					OFFSET -4.132702 0.575449 10.599197
					CHANNELS 3 Xrotation Yrotation Zrotation
					JOINT RightArm
					{
						OFFSET 0.000000 -0.000002 13.901794
						CHANNELS 3 Xrotation Yrotation Zrotation
						JOINT RightArmRoll
						{
							OFFSET 0.000000 0.000000 7.017883
							CHANNELS 3 Xrotation Yrotation Zrotation
							JOINT RightForeArm
							{
								OFFSET 0.000000 -0.000004 20.440598
								CHANNELS 3 Xrotation Yrotation Zrotation
								JOINT RightForeArmRoll
								{
									OFFSET 0.000000 -0.000002 7.875153
									CHANNELS 3 Xrotation Yrotation Zrotation
									JOINT RightHand
									{
										OFFSET 0.000000 -0.000002 15.803696
										CHANNELS 3 Xrotation Yrotation Zrotation
										End Site
										{
											OFFSET 0.000000 0.000000 0.100006
										}
									}
								}
							}
						}
					}
				}
				JOINT LeftShoulder
				{
					OFFSET 4.132702 0.575449 10.599197
					CHANNELS 3 Xrotation Yrotation Zrotation
					JOINT LeftArm
					{
						OFFSET 0.000000 -0.000002 13.901794
						CHANNELS 3 Xrotation Yrotation Zrotation
						JOINT LeftArmRoll
						{
							OFFSET 0.000000 0.000000 7.017883
							CHANNELS 3 Xrotation Yrotation Zrotation
							JOINT LeftForeArm
							{
								OFFSET 0.000000 -0.000004 20.440598
								CHANNELS 3 Xrotation Yrotation Zrotation
								JOINT LeftForeArmRoll
								{
									OFFSET 0.000000 -0.000002 7.875153
									CHANNELS 3 Xrotation Yrotation Zrotation
									JOINT LeftHand
									{
										OFFSET 0.000000 -0.000002 15.803696
										CHANNELS 3 Xrotation Yrotation Zrotation
										End Site
										{
											OFFSET 0.000000 0.000000 0.100006
										}
									}
								}
							}
						}
					}
				}
			}
		}
	}
	JOINT RightUpLeg
	{
		OFFSET -7.060482 1.086100 -1.294701
		CHANNELS 3 Xrotation Yrotation Zrotation
		JOINT RightUpLegRoll
		{
			OFFSET 0.000000 -0.000004 18.530800
			CHANNELS 3 Xrotation Yrotation Zrotation
			JOINT RightLeg
			{
				OFFSET 0.000000 0.000004 -22.947601
				CHANNELS 3 Xrotation Yrotation Zrotation
				JOINT RightLegRoll
				{
					OFFSET 0.000000 -0.000004 23.022598
					CHANNELS 3 Xrotation Yrotation Zrotation
					JOINT RightFoot
					{
						OFFSET 0.000000 -0.000002 19.162498
						CHANNELS 3 Xrotation Yrotation Zrotation
						JOINT RightToeBase
						{
							OFFSET 0.000000 -0.000004 16.018799
							CHANNELS 3 Xrotation Yrotation Zrotation
							End Site
							{
								OFFSET 0.006790 0.894205 7.757828
							}
						}
					}
				}
			}
		}
	}
	JOINT LeftUpLeg
	{
		OFFSET 7.060482 1.086100 -1.294701
		CHANNELS 3 Xrotation Yrotation Zrotation
		JOINT LeftUpLegRoll
		{
			OFFSET 0.000000 -0.000004 18.530899
			CHANNELS 3 Xrotation Yrotation Zrotation
			JOINT LeftLeg
			{
				OFFSET 0.000000 -0.000004 22.947495
				CHANNELS 3 Xrotation Yrotation Zrotation
				JOINT LeftLegRoll
				{
					OFFSET 0.000000 -0.000004 23.235504
					CHANNELS 3 Xrotation Yrotation Zrotation
					JOINT LeftFoot
					{
						OFFSET 0.000000 -0.000002 18.949600
						CHANNELS 3 Xrotation Yrotation Zrotation
						JOINT LeftToeBase
						{
							OFFSET 0.000000 -0.000004 16.018799
							CHANNELS 3 Xrotation Yrotation Zrotation
							End Site
							{
								OFFSET -0.030430 0.894207 7.757828
							}
						}
					}
				}
			}
		}
	}
}
MOTION
Frames: 12
Frame Time: 0.041667
48.438004 -18.765121 96.880196 0.639337 0.577941 0.611239 -2.644043 -0.045737 -0.122235 -1.284331 -0.082130 -0.248615 0.360736 -0.085037 -0.247593 21.207189 3.741922 1.178316 9.925740 -1.784108 1.643379 -12.078620 -38.224710 -13.186192 33.094497 -51.769347 72.608995 -0.000000 -0.000001 0.000001 5.363477 7.849936 -1.011714 -0.000006 0.000005 -2.999990 -5.000220 -7.998735 0.000149 -15.199450 40.093299 17.449749 31.995007 49.831646 -66.807740 0.000000 0.000003 0.000004 4.266011 -5.515853 1.215248 -0.000007 -0.000017 2.999983 -5.000191 7.998745 -0.000140 -3.797223 -177.355820 2.017224 -179.999991 0.000005 -1.079001 173.436548 -1.924310 -0.565368 -0.000002 0.000001 0.067660 68.716607 6.950940 2.006418 25.456947 -7.355615 0.000002 -2.371531 174.976278 -0.993571 -0.000005 -0.000005 -1.106680 -7.292991 1.944156 0.315806 -0.000002 -0.000002 -0.107253 69.374095 -6.935297 -1.991469 25.456953 7.355613 -0.000002 
48.440704 -18.768618 96.877800 0.632330 0.573596 0.612280 -2.642592 -0.045948 -0.120893 -1.281472 -0.083111 -0.245761 0.363593 -0.085989 -0.244730 21.200702 3.754839 1.178197 9.938431 -1.784739 1.643786 -12.082980 -38.204561 -13.191050 33.092338 -51.784295 72.605867 -0.000000 -0.000001 0.000001 5.388816 7.847623 -1.012087 -0.000006 0.000004 -2.999986 -5.000221 -7.998734 0.000156 -15.198685 40.109115 17.449277 31.992852 49.815961 -66.812221 -0.000000 0.000004 0.000003 4.260684 -5.520021 1.215203 -0.000006 -0.000017 2.999978 -5.000191 7.998744 -0.000143 -3.789929 -177.347802 2.025372 -179.999991 0.000005 -1.079000 173.432382 -1.929261 -0.565069 -0.000002 0.000001 0.067821 68.721757 6.950865 2.006480 25.456950 -7.355615 0.000002 -2.358182 174.983217 -0.989696 -0.000005 -0.000004 -1.106810 -7.284505 1.941712 0.315338 -0.000003 -0.000002 -0.106690 69.369976 -6.935291 -1.991627 25.456953 7.355612 -0.000001 
48.444805 -18.758917 96.874901 0.625909 0.569351 0.613750 -2.641342 -0.046095 -0.119510 -1.279001 -0.084101 -0.242853 0.366065 -0.086951 -0.241813 21.195701 3.763241 1.179084 9.950995 -1.779193 1.643967 -12.087198 -38.185716 -13.195903 33.088445 -51.797808 72.601024 -0.000001 0.000001 0.000002 5.412819 7.845055 -1.012488 -0.000006 0.000005 -2.999988 -5.000219 -7.998735 0.000151 -15.196244 40.124558 17.446472 31.986872 49.803223 -66.811975 -0.000000 0.000003 0.000005 4.259168 -5.522643 1.215108 -0.000007 -0.000017 2.999979 -5.000191 7.998743 -0.000139 -3.782736 -177.339810 2.033499 -179.999991 0.000005 -1.079001 173.429254 -1.934215 -0.564749 -0.000001 0.000001 0.067951 68.726490 6.950835 2.006477 25.456952 -7.355615 0.000002 -2.345302 174.989173 -0.985837 -0.000005 -0.000004 -1.106940 -7.275459 1.939361 0.314879 -0.000003 -0.000002 -0.106062 69.365209 -6.935291 -1.991724 25.456952 7.355615 -0.000002 
48.444004 -18.763018 96.876503 0.620001 0.565196 0.615620 -2.640242 -0.046185 -0.118099 -1.276861 -0.085097 -0.239899 0.368204 -0.087919 -0.238852 21.192108 3.767755 1.180810 9.963415 -1.768409 1.643951 -12.091312 -38.168077 -13.200780 33.082790 -51.810062 72.594413 -0.000001 -0.000001 -0.000001 5.435559 7.842273 -1.012900 -0.000006 0.000004 -2.999989 -5.000221 -7.998735 0.000156 -15.192108 40.139533 17.441416 31.977634 49.793052 -66.807638 -0.000000 0.000003 0.000003 4.260955 -5.523927 1.214981 -0.000007 -0.000017 2.999979 -5.000191 7.998746 -0.000138 -3.775620 -177.332789 2.041637 -179.999991 0.000005 -1.079001 173.427123 -1.940178 -0.564512 -0.000001 0.000001 0.068053 68.730814 6.950817 2.006603 25.456950 -7.355613 0.000002 -2.332849 174.996126 -0.982069 -0.000005 -0.000005 -1.107050 -7.265945 1.937081 0.314429 -0.000003 -0.000002 -0.105382 69.360018 -6.935273 -1.991848 25.456948 7.355613 -0.000000 
48.448505 -18.768116 96.876190 0.614536 0.561119 0.617853 -2.639280 -0.046227 -0.116663 -1.275012 -0.086095 -0.236910 0.370055 -0.088889 -0.235857 21.189631 3.769002 1.183205 9.975613 -1.753323 1.643746 -12.095346 -38.151435 -13.205691 33.075806 -51.821157 72.586558 -0.000001 0.000001 -0.000002 5.457133 7.839285 -1.013335 -0.000006 0.000004 -2.999992 -5.000221 -7.998734 0.000153 -15.186695 40.154180 17.434575 31.965582 49.785105 -66.799906 0.000000 0.000004 -0.000000 4.265567 -5.524063 1.214831 -0.000006 -0.000018 2.999976 -5.000191 7.998744 -0.000138 -3.768567 -177.324784 2.049671 -179.999991 0.000005 -1.079001 173.425784 -1.945140 -0.564131 -0.000001 0.000001 0.068131 68.735014 6.950753 2.006626 25.456952 -7.355613 0.000002 -2.320772 175.002069 -0.978304 -0.000005 -0.000005 -1.107160 -7.256058 1.934862 0.313988 -0.000003 -0.000002 -0.104661 69.354301 -6.935263 -1.992103 25.456952 7.355613 -0.000001 
48.448605 -18.767717 96.876991 0.609441 0.557110 0.620422 -2.638438 -0.046227 -0.115212 -1.273401 -0.087090 -0.233899 0.371664 -0.089858 -0.232839 21.188294 3.767590 1.186112 9.987564 -1.734891 1.643370 -12.099383 -38.135794 -13.210720 33.067623 -51.831249 72.577426 -0.000000 0.000000 -0.000002 5.477636 7.836133 -1.013768 -0.000007 0.000004 -2.999990 -5.000221 -7.998735 0.000150 -15.180160 40.168582 17.426183 31.951297 49.778986 -66.789456 -0.000000 0.000004 0.000004 4.272524 -5.523267 1.214667 -0.000007 -0.000017 2.999982 -5.000192 7.998744 -0.000136 -3.761547 -177.317790 2.057729 -179.999991 0.000005 -1.079001 173.425156 -1.950105 -0.563728 -0.000001 0.000001 0.068189 68.738792 6.950700 2.006779 25.456947 -7.355614 0.000002 -2.309035 175.008038 -0.974547 -0.000005 -0.000005 -1.107270 -7.245883 1.932673 0.313554 -0.000003 -0.000002 -0.103911 69.348372 -6.935245 -1.992172 25.456950 7.355612 -0.000001 
48.451202 -18.789215 96.879196 0.604647 0.553158 0.623290 -2.637689 -0.046193 -0.113754 -1.271982 -0.088078 -0.230874 0.373081 -0.090821 -0.229809 21.187805 3.764150 1.189348 9.999224 -1.714049 1.642850 -12.103423 -38.120942 -13.215853 33.058536 -51.840477 72.567297 -0.000000 -0.000000 -0.000001 5.497145 7.832834 -1.014204 -0.000006 0.000004 -2.999993 -5.000220 -7.998735 0.000156 -15.172509 40.182737 17.416395 31.935338 49.774314 -66.776717 -0.000000 0.000004 0.000000 4.281324 -5.521737 1.214494 -0.000007 -0.000017 2.999982 -5.000192 7.998744 -0.000142 -3.754567 -177.309785 2.065664 -179.999991 0.000005 -1.079001 173.425101 -1.956061 -0.563405 -0.000002 0.000001 0.068230 68.742473 6.950675 2.006744 25.456952 -7.355615 0.000002 -2.297591 175.013994 -0.970813 -0.000005 -0.000005 -1.107380 -7.235509 1.930525 0.313129 -0.000003 -0.000002 -0.103146 69.342130 -6.935245 -1.992361 25.456952 7.355613 -0.000003 
48.452705 -18.786718 96.879601 0.600089 0.549253 0.626428 -2.637008 -0.046133 -0.112296 -1.270712 -0.089057 -0.227846 0.374352 -0.091774 -0.226775 21.187981 3.759303 1.192768 10.010509 -1.691722 1.642189 -12.107530 -38.106790 -13.221148 33.048738 -51.849069 72.556553 0.000001 0.000001 -0.000001 5.515767 7.829418 -1.014648 -0.000007 0.000005 -2.999985 -5.000220 -7.998735 0.000157 -15.164273 40.196674 17.405709 31.918277 49.770711 -66.762688 -0.000000 0.000004 -0.000000 4.291476 -5.519671 1.214320 -0.000007 -0.000017 2.999977 -5.000191 7.998744 -0.000143 -3.747588 -177.302763 2.073604 -179.999991 0.000005 -1.079001 173.425524 -1.961030 -0.562965 -0.000002 0.000001 0.068257 68.745834 6.950631 2.006922 25.456950 -7.355614 0.000002 -2.286408 175.019950 -0.967083 -0.000005 -0.000005 -1.107480 -7.225034 1.928378 0.312709 -0.000003 -0.000002 -0.102375 69.335791 -6.935240 -1.992458 25.456948 7.355613 -0.000001 
48.453804 -18.769615 96.879204 0.595683 0.545382 0.629802 -2.636381 -0.046055 -0.110845 -1.269542 -0.090021 -0.224826 0.375524 -0.092712 -0.223750 21.188739 3.753659 1.196203 10.021493 -1.668878 1.641429 -12.111718 -38.093123 -13.226599 33.038540 -51.857156 72.545276 -0.000001 0.000000 -0.000003 5.533579 7.825890 -1.015076 -0.000007 0.000004 -2.999988 -5.000221 -7.998735 0.000152 -15.155368 40.210594 17.394234 31.900409 49.767863 -66.747614 0.000000 0.000003 0.000004 4.302500 -5.517278 1.214149 -0.000007 -0.000018 2.999980 -5.000192 7.998745 -0.000141 -3.740617 -177.294758 2.081420 -179.999991 0.000005 -1.079001 173.426276 -1.966990 -0.562629 -0.000002 0.000001 0.068274 68.749194 6.950587 2.006902 25.456950 -7.355614 0.000002 -2.275436 175.025906 -0.963333 -0.000005 -0.000005 -1.107580 -7.214529 1.926229 0.312296 -0.000002 -0.000002 -0.101613 69.329323 -6.935230 -1.992661 25.456948 7.355613 -0.000001 
48.455303 -18.777819 96.879990 0.591364 0.541537 0.633381 -2.635782 -0.045966 -0.109409 -1.268421 -0.090966 -0.221825 0.376645 -0.093633 -0.220743 21.189899 3.747844 1.199474 10.031984 -1.646442 1.640577 -12.116027 -38.079742 -13.232241 33.028114 -51.864782 72.533658 -0.000000 0.000000 0.000001 5.550671 7.822301 -1.015493 -0.000006 0.000004 -2.999993 -5.000219 -7.998735 0.000152 -15.146156 40.224360 17.382319 31.882251 49.765322 -66.732096 0.000001 0.000004 0.000000 4.313906 -5.514760 1.213995 -0.000007 -0.000017 2.999978 -5.000191 7.998744 -0.000143 -3.733601 -177.287764 2.089236 -179.999991 0.000005 -1.079001 173.427259 -1.971961 -0.562170 -0.000002 0.000001 0.068284 68.752343 6.950531 2.006995 25.456952 -7.355614 0.000001 -2.264628 175.031862 -0.959556 -0.000005 -0.000005 -1.107670 -7.204093 1.924062 0.311889 -0.000003 -0.000002 -0.100870 69.322978 -6.935222 -1.992756 25.456945 7.355613 -0.000001 
48.445805 -18.773420 96.902092 0.587067 0.537707 0.637130 -2.635181 -0.045873 -0.107996 -1.267302 -0.091889 -0.218853 0.377762 -0.094530 -0.217766 21.191362 3.742480 1.202427 10.041983 -1.625357 1.639651 -12.120515 -38.066734 -13.238132 33.017626 -51.872333 72.522061 -0.000000 0.000001 0.000001 5.567137 7.818650 -1.015894 -0.000006 0.000004 -2.999992 -5.000221 -7.998735 0.000155 -15.136937 40.238120 17.370358 31.864578 49.762723 -66.717076 -0.000000 0.000003 0.000001 4.325210 -5.512319 1.213869 -0.000007 -0.000017 2.999985 -5.000191 7.998744 -0.000142 -3.726554 -177.280756 2.096975 -179.999991 0.000005 -1.079001 173.428338 -1.977924 -0.560810 -0.000001 0.000001 0.068291 68.755389 6.950501 2.007097 25.456953 -7.355613 0.000002 -2.253944 175.037832 -0.955747 -0.000005 -0.000005 -1.107770 -7.193818 1.921863 0.311487 -0.000003 -0.000002 -0.100159 69.316735 -6.935219 -1.992947 25.456955 7.355613 -0.000002 
48.448803 -18.775217 96.899803 0.582715 0.533879 0.641019 -2.634561 -0.045785 -0.106615 -1.266142 -0.092786 -0.215920 0.378921 -0.095401 -0.214827 21.192861 3.738179 1.204899 10.051492 -1.606571 1.638691 -12.125191 -38.053713 -13.244263 33.007487 -51.879641 72.510490 -0.000000 0.000001 0.000002 5.583059 7.814987 -1.016269 -0.000006 0.000004 -2.999991 -5.000221 -7.998734 0.000157 -15.127720 40.251886 17.358466 31.847625 49.759704 -66.702842 0.000000 0.000003 0.000000 4.335914 -5.510155 1.213774 -0.000008 -0.000017 2.999983 -5.000191 7.998746 -0.000139 -3.719438 -177.273735 2.104639 -179.999991 0.000005 -1.079001 173.429363 -1.982894 -0.561346 -0.000001 0.000001 0.068297 68.758544 6.950443 2.007088 25.456950 -7.355614 0.000002 -2.243345 175.043788 -0.951888 -0.000005 -0.000004 -1.107870 -7.183793 1.919613 0.311090 -0.000002 -0.000002 -0.099491 69.310704 -6.935188 -1.993120 25.456950 7.355612 -0.000002 
